<svg width="114.82" height="18.06" viewBox="0 0 114.82 18.06" xmlns="http://www.w3.org/2000/svg"><g id="svgGroup" stroke-linecap="round" fill-rule="evenodd" font-size="9pt" stroke="#000" stroke-width="0.25mm" fill="#000" style="stroke:#000;stroke-width:0.25mm;fill:#000"><path d="M 73.72 14.72 L 73 14.72 L 73 4.38 L 73.68 4.38 L 73.72 6.72 L 73.8 6.72 Q 74.32 5.48 75.35 4.85 Q 76.38 4.22 77.62 4.22 A 4.3 4.3 0 0 1 78.761 4.366 A 3.503 3.503 0 0 1 79.8 4.84 A 2.859 2.859 0 0 1 80.674 5.794 Q 80.896 6.176 81.047 6.658 A 5.443 5.443 0 0 1 81.1 6.84 L 81.26 6.84 A 4.435 4.435 0 0 1 81.891 5.731 A 3.68 3.68 0 0 1 82.84 4.88 A 4.394 4.394 0 0 1 85.138 4.221 A 5.233 5.233 0 0 1 85.22 4.22 A 4.423 4.423 0 0 1 86.3 4.347 A 3.657 3.657 0 0 1 87.14 4.67 A 2.875 2.875 0 0 1 88.183 5.636 A 3.802 3.802 0 0 1 88.45 6.11 A 4.293 4.293 0 0 1 88.75 6.999 Q 88.92 7.746 88.92 8.72 L 88.92 14.72 L 88.2 14.72 L 88.2 8.84 Q 88.2 7.871 88.027 7.15 A 4.128 4.128 0 0 0 87.86 6.61 Q 87.52 5.74 86.84 5.32 Q 86.16 4.9 85.1 4.9 A 3.791 3.791 0 0 0 83.96 5.066 A 3.291 3.291 0 0 0 83.13 5.46 A 3.729 3.729 0 0 0 81.84 6.93 A 4.422 4.422 0 0 0 81.81 6.99 A 4.625 4.625 0 0 0 81.408 8.315 A 6.11 6.11 0 0 0 81.34 9.24 L 81.34 14.72 L 80.58 14.72 L 80.58 8.84 Q 80.58 7.871 80.407 7.15 A 4.128 4.128 0 0 0 80.24 6.61 A 3.07 3.07 0 0 0 79.894 5.956 A 2.31 2.31 0 0 0 79.23 5.32 Q 78.632 4.945 77.74 4.905 A 4.864 4.864 0 0 0 77.52 4.9 A 3.913 3.913 0 0 0 76.429 5.047 A 3.279 3.279 0 0 0 75.53 5.46 A 3.793 3.793 0 0 0 74.246 6.9 A 4.502 4.502 0 0 0 74.2 6.99 Q 73.72 7.96 73.72 9.24 L 73.72 14.72 Z M 13.38 4.84 L 12.58 4.84 Q 12.36 3.62 11.62 2.7 A 4.995 4.995 0 0 0 10.065 1.425 A 5.948 5.948 0 0 0 9.71 1.25 A 5.828 5.828 0 0 0 8.19 0.808 A 7.772 7.772 0 0 0 7 0.72 A 7.384 7.384 0 0 0 5.423 0.881 A 5.573 5.573 0 0 0 3.7 1.56 Q 2.32 2.4 1.57 3.91 A 7.027 7.027 0 0 0 0.944 5.883 A 9.391 9.391 0 0 0 0.82 7.44 A 9.086 9.086 0 0 0 0.964 9.088 A 7.447 7.447 0 0 0 1.25 10.18 A 6.481 6.481 0 0 0 1.974 11.657 A 5.71 5.71 0 0 0 2.48 12.31 Q 3.28 13.2 4.42 13.68 A 6.071 6.071 0 0 0 6.004 14.098 A 7.756 7.756 0 0 0 7 14.16 A 7.756 7.756 0 0 0 8.408 14.038 A 5.894 5.894 0 0 0 9.72 13.64 A 5.046 5.046 0 0 0 11.135 12.722 A 4.67 4.67 0 0 0 11.64 12.17 A 4.723 4.723 0 0 0 12.567 10.039 A 5.546 5.546 0 0 0 12.58 9.96 L 13.38 9.96 A 5.573 5.573 0 0 1 12.853 11.722 A 5.081 5.081 0 0 1 12.32 12.57 A 5.604 5.604 0 0 1 10.185 14.242 A 6.56 6.56 0 0 1 10.1 14.28 A 6.962 6.962 0 0 1 8.252 14.796 A 8.971 8.971 0 0 1 7 14.88 A 8.173 8.173 0 0 1 5.314 14.712 A 6.785 6.785 0 0 1 4.13 14.35 Q 2.84 13.82 1.91 12.83 A 6.615 6.615 0 0 1 0.586 10.724 A 7.655 7.655 0 0 1 0.49 10.47 A 8.389 8.389 0 0 1 0.05 8.474 A 10.371 10.371 0 0 1 0 7.44 A 9.759 9.759 0 0 1 0.156 5.66 A 7.893 7.893 0 0 1 0.5 4.39 A 7.06 7.06 0 0 1 1.386 2.691 A 6.347 6.347 0 0 1 1.92 2.04 Q 2.84 1.06 4.13 0.53 Q 5.42 0 7 0 A 8.387 8.387 0 0 1 8.681 0.162 A 6.68 6.68 0 0 1 10.04 0.59 A 5.839 5.839 0 0 1 11.959 1.927 A 5.642 5.642 0 0 1 12.25 2.26 A 5.393 5.393 0 0 1 13.273 4.337 A 6.551 6.551 0 0 1 13.38 4.84 Z M 70.36 14.72 L 61.7 14.72 L 61.7 14.32 A 4.44 4.44 0 0 1 61.848 13.156 A 3.838 3.838 0 0 1 62.12 12.44 Q 62.54 11.6 63.23 10.9 Q 63.92 10.2 64.75 9.58 Q 65.58 8.96 66.41 8.36 Q 67.24 7.76 67.93 7.12 Q 68.62 6.48 69.04 5.74 A 3.246 3.246 0 0 0 69.454 4.307 A 3.89 3.89 0 0 0 69.46 4.08 Q 69.46 3.06 69.05 2.33 Q 68.64 1.6 67.86 1.21 A 3.571 3.571 0 0 0 66.902 0.897 Q 66.488 0.821 66.015 0.82 A 5.99 5.99 0 0 0 66 0.82 A 4.602 4.602 0 0 0 65.014 0.921 A 3.538 3.538 0 0 0 64.05 1.28 Q 63.22 1.74 62.77 2.56 A 3.353 3.353 0 0 0 62.384 3.799 Q 62.357 4.035 62.357 4.286 A 4.717 4.717 0 0 0 62.36 4.46 L 61.6 4.48 Q 61.578 3.761 61.738 3.14 A 3.834 3.834 0 0 1 62.1 2.23 Q 62.64 1.26 63.65 0.7 Q 64.66 0.14 66 0.14 A 6.081 6.081 0 0 1 67.08 0.231 Q 67.734 0.349 68.27 0.62 Q 69.22 1.1 69.73 1.99 A 3.805 3.805 0 0 1 70.18 3.292 A 4.977 4.977 0 0 1 70.24 4.08 A 4.193 4.193 0 0 1 70.103 5.17 A 3.592 3.592 0 0 1 69.83 5.88 A 5.565 5.565 0 0 1 68.745 7.335 A 6.076 6.076 0 0 1 68.74 7.34 A 13.937 13.937 0 0 1 67.443 8.449 A 15.527 15.527 0 0 1 67.24 8.6 Q 66.42 9.2 65.6 9.79 A 18.141 18.141 0 0 0 64.279 10.834 A 16.353 16.353 0 0 0 64.08 11.01 A 6.334 6.334 0 0 0 63.179 12.006 A 5.646 5.646 0 0 0 62.93 12.38 Q 62.48 13.12 62.42 14.04 L 70.36 14.04 L 70.36 14.72 Z M 51.42 14.72 L 50.7 14.72 L 50.7 0.14 L 51.42 0.14 L 51.42 6.72 L 51.5 6.72 Q 52.02 5.48 53.07 4.85 Q 54.12 4.22 55.36 4.22 A 4.699 4.699 0 0 1 56.334 4.318 A 4.001 4.001 0 0 1 56.87 4.47 Q 57.56 4.72 58.06 5.26 A 3.283 3.283 0 0 1 58.553 5.966 A 4.463 4.463 0 0 1 58.84 6.65 A 5.114 5.114 0 0 1 59.03 7.457 Q 59.092 7.85 59.111 8.3 A 9.804 9.804 0 0 1 59.12 8.72 L 59.12 14.72 L 58.38 14.72 L 58.38 8.84 Q 58.38 7.871 58.207 7.15 A 4.128 4.128 0 0 0 58.04 6.61 A 2.957 2.957 0 0 0 57.676 5.935 A 2.306 2.306 0 0 0 57.01 5.32 Q 56.396 4.946 55.488 4.905 A 5.054 5.054 0 0 0 55.26 4.9 A 3.935 3.935 0 0 0 54.094 5.068 A 3.409 3.409 0 0 0 53.25 5.46 Q 52.38 6.02 51.9 6.99 Q 51.42 7.96 51.42 9.24 L 51.42 14.72 Z M 48.06 7.44 L 47.34 7.44 A 3.452 3.452 0 0 0 47.032 6.621 A 2.896 2.896 0 0 0 46.64 6.06 Q 46.14 5.5 45.41 5.21 A 4.154 4.154 0 0 0 44.138 4.93 A 4.896 4.896 0 0 0 43.82 4.92 Q 42.86 4.92 42.11 5.26 Q 41.36 5.6 40.82 6.22 A 4.127 4.127 0 0 0 40.094 7.43 A 4.851 4.851 0 0 0 40 7.69 A 5.529 5.529 0 0 0 39.759 8.827 A 6.99 6.99 0 0 0 39.72 9.58 A 6.643 6.643 0 0 0 39.818 10.748 Q 39.943 11.451 40.23 12.03 A 3.921 3.921 0 0 0 41.064 13.168 A 3.648 3.648 0 0 0 41.66 13.62 Q 42.58 14.18 43.8 14.18 Q 44.76 14.18 45.51 13.84 Q 46.26 13.5 46.76 12.89 A 2.98 2.98 0 0 0 47.365 11.621 A 3.578 3.578 0 0 0 47.4 11.44 L 48.14 11.44 Q 47.98 12.48 47.38 13.26 Q 46.78 14.04 45.87 14.46 A 4.528 4.528 0 0 1 44.568 14.83 A 5.762 5.762 0 0 1 43.8 14.88 A 5.337 5.337 0 0 1 42.585 14.746 A 4.549 4.549 0 0 1 41.83 14.5 Q 40.94 14.12 40.3 13.42 A 4.699 4.699 0 0 1 39.422 12.018 A 5.501 5.501 0 0 1 39.32 11.75 A 5.984 5.984 0 0 1 39.028 10.448 A 7.628 7.628 0 0 1 38.98 9.58 Q 38.98 8.38 39.32 7.4 A 4.954 4.954 0 0 1 39.969 6.131 A 4.518 4.518 0 0 1 40.31 5.71 Q 40.96 5 41.86 4.61 Q 42.76 4.22 43.86 4.22 A 5.231 5.231 0 0 1 45.031 4.347 A 4.377 4.377 0 0 1 45.85 4.62 Q 46.74 5.02 47.32 5.75 Q 47.9 6.48 48.06 7.44 Z M 100.56 18.06 L 99.82 18.06 L 99.82 12.3 L 99.78 12.3 Q 99.38 13.46 98.36 14.17 A 3.89 3.89 0 0 1 96.823 14.796 A 5.301 5.301 0 0 1 95.86 14.88 A 4.341 4.341 0 0 1 94.669 14.721 A 3.875 3.875 0 0 1 94.1 14.51 Q 93.3 14.14 92.72 13.45 A 4.484 4.484 0 0 1 92.063 12.387 A 5.643 5.643 0 0 1 91.83 11.77 A 6.628 6.628 0 0 1 91.579 10.577 A 8.711 8.711 0 0 1 91.52 9.54 A 8.413 8.413 0 0 1 91.622 8.198 Q 91.744 7.444 92.012 6.812 A 5.1 5.1 0 0 1 92.07 6.68 A 4.718 4.718 0 0 1 92.74 5.606 A 3.91 3.91 0 0 1 93.6 4.84 Q 94.58 4.2 95.86 4.2 A 5.175 5.175 0 0 1 96.875 4.296 A 4.194 4.194 0 0 1 97.63 4.52 A 3.959 3.959 0 0 1 98.642 5.109 A 3.622 3.622 0 0 1 98.97 5.41 Q 99.52 5.98 99.78 6.76 L 99.84 6.76 L 99.88 4.38 L 100.56 4.38 L 100.56 18.06 Z M 108.22 14.72 L 106.76 14.72 Q 105.86 14.72 105.35 14.27 A 1.336 1.336 0 0 1 104.993 13.741 Q 104.84 13.349 104.84 12.78 L 104.84 5.02 L 102.7 5.02 L 102.7 4.38 L 104.84 4.38 L 104.84 1.1 L 105.56 0.92 L 105.56 4.38 L 108.18 4.38 L 108.18 5.02 L 105.58 5.02 L 105.58 12.7 A 2.444 2.444 0 0 0 105.604 13.053 Q 105.63 13.234 105.687 13.379 A 0.92 0.92 0 0 0 105.88 13.69 A 0.916 0.916 0 0 0 106.235 13.912 Q 106.38 13.964 106.559 13.986 A 2.223 2.223 0 0 0 106.82 14 L 108.22 14 L 108.22 14.72 Z M 114.82 14.72 L 113.36 14.72 Q 112.46 14.72 111.95 14.27 A 1.336 1.336 0 0 1 111.593 13.741 Q 111.44 13.349 111.44 12.78 L 111.44 5.02 L 109.3 5.02 L 109.3 4.38 L 111.44 4.38 L 111.44 1.1 L 112.16 0.92 L 112.16 4.38 L 114.78 4.38 L 114.78 5.02 L 112.18 5.02 L 112.18 12.7 A 2.444 2.444 0 0 0 112.204 13.053 Q 112.23 13.234 112.287 13.379 A 0.92 0.92 0 0 0 112.48 13.69 A 0.916 0.916 0 0 0 112.835 13.912 Q 112.98 13.964 113.159 13.986 A 2.223 2.223 0 0 0 113.42 14 L 114.82 14 L 114.82 14.72 Z M 35.46 6.76 L 35.52 6.76 L 35.56 4.38 L 36.24 4.38 L 36.24 14.72 L 35.56 14.72 L 35.52 12.3 L 35.46 12.3 Q 35.06 13.46 34.04 14.17 A 3.89 3.89 0 0 1 32.503 14.796 A 5.301 5.301 0 0 1 31.54 14.88 A 4.341 4.341 0 0 1 30.349 14.721 A 3.875 3.875 0 0 1 29.78 14.51 Q 28.98 14.14 28.4 13.45 A 4.484 4.484 0 0 1 27.743 12.387 A 5.643 5.643 0 0 1 27.51 11.77 A 6.628 6.628 0 0 1 27.259 10.577 A 8.711 8.711 0 0 1 27.2 9.54 A 8.413 8.413 0 0 1 27.302 8.198 Q 27.424 7.444 27.692 6.812 A 5.1 5.1 0 0 1 27.75 6.68 A 4.718 4.718 0 0 1 28.42 5.606 A 3.91 3.91 0 0 1 29.28 4.84 Q 30.26 4.2 31.54 4.2 A 5.175 5.175 0 0 1 32.555 4.296 A 4.194 4.194 0 0 1 33.31 4.52 A 3.959 3.959 0 0 1 34.322 5.109 A 3.622 3.622 0 0 1 34.65 5.41 Q 35.2 5.98 35.46 6.76 Z M 20.24 14.88 Q 19.14 14.88 18.25 14.5 Q 17.36 14.12 16.71 13.41 A 4.884 4.884 0 0 1 15.778 11.91 A 5.633 5.633 0 0 1 15.71 11.73 A 5.889 5.889 0 0 1 15.398 10.332 A 7.311 7.311 0 0 1 15.36 9.58 Q 15.36 8 15.97 6.79 Q 16.58 5.58 17.68 4.9 Q 18.78 4.22 20.24 4.22 A 5.337 5.337 0 0 1 21.456 4.354 A 4.549 4.549 0 0 1 22.21 4.6 Q 23.1 4.98 23.73 5.69 A 4.958 4.958 0 0 1 24.569 7.022 A 5.859 5.859 0 0 1 24.71 7.38 A 5.981 5.981 0 0 1 25.018 8.752 A 7.501 7.501 0 0 1 25.06 9.56 Q 25.06 11.12 24.46 12.32 Q 23.86 13.52 22.77 14.2 A 4.49 4.49 0 0 1 20.853 14.848 A 5.652 5.652 0 0 1 20.24 14.88 Z M 20.22 14.16 A 4.494 4.494 0 0 0 21.39 14.013 A 3.703 3.703 0 0 0 22.36 13.6 Q 23.28 13.04 23.79 12 A 4.881 4.881 0 0 0 24.215 10.643 A 6.606 6.606 0 0 0 24.3 9.56 A 6.692 6.692 0 0 0 24.216 8.479 A 5.337 5.337 0 0 0 24.02 7.67 Q 23.74 6.82 23.21 6.2 Q 22.68 5.58 21.93 5.25 A 3.888 3.888 0 0 0 20.816 4.953 A 4.885 4.885 0 0 0 20.24 4.92 A 4.427 4.427 0 0 0 19.026 5.081 A 3.734 3.734 0 0 0 18.09 5.49 A 3.836 3.836 0 0 0 16.707 6.972 A 4.6 4.6 0 0 0 16.64 7.1 A 4.761 4.761 0 0 0 16.223 8.377 Q 16.122 8.93 16.12 9.56 A 7.945 7.945 0 0 0 16.12 9.58 A 6.473 6.473 0 0 0 16.216 10.717 A 5.329 5.329 0 0 0 16.4 11.45 A 4.275 4.275 0 0 0 16.845 12.404 A 3.692 3.692 0 0 0 17.22 12.9 Q 17.76 13.5 18.52 13.83 A 3.995 3.995 0 0 0 19.692 14.133 A 4.946 4.946 0 0 0 20.22 14.16 Z M 35.5 10.24 L 35.5 8.82 Q 35.5 7.8 35.05 6.89 Q 34.6 5.98 33.75 5.42 Q 32.9 4.86 31.7 4.86 Q 30.58 4.86 29.74 5.41 Q 28.9 5.96 28.43 7 A 4.95 4.95 0 0 0 28.093 8.076 Q 27.96 8.743 27.96 9.54 A 7.616 7.616 0 0 0 28.044 10.699 Q 28.158 11.443 28.43 12.05 A 4.105 4.105 0 0 0 28.972 12.95 A 3.302 3.302 0 0 0 29.74 13.65 A 3.367 3.367 0 0 0 31.257 14.177 A 4.242 4.242 0 0 0 31.7 14.2 A 4.213 4.213 0 0 0 32.712 14.084 A 3.243 3.243 0 0 0 33.75 13.63 Q 34.6 13.06 35.05 12.16 Q 35.5 11.26 35.5 10.24 Z M 99.82 10.24 L 99.82 8.82 Q 99.82 7.8 99.37 6.89 Q 98.92 5.98 98.07 5.42 Q 97.22 4.86 96.02 4.86 Q 94.9 4.86 94.06 5.41 Q 93.22 5.96 92.75 7 A 4.95 4.95 0 0 0 92.413 8.076 Q 92.28 8.743 92.28 9.54 A 7.616 7.616 0 0 0 92.364 10.699 Q 92.478 11.443 92.75 12.05 A 4.105 4.105 0 0 0 93.292 12.95 A 3.302 3.302 0 0 0 94.06 13.65 A 3.367 3.367 0 0 0 95.577 14.177 A 4.242 4.242 0 0 0 96.02 14.2 A 4.213 4.213 0 0 0 97.032 14.084 A 3.243 3.243 0 0 0 98.07 13.63 Q 98.92 13.06 99.37 12.16 Q 99.82 11.26 99.82 10.24 Z" vector-effect="non-scaling-stroke"/></g></svg>